<svg xmlns:dc="http://purl.org/dc/elements/1.1/" xmlns:cc="http://creativecommons.org/ns#" xmlns:rdf="http://www.w3.org/1999/02/22-rdf-syntax-ns#" xmlns:svg="http://www.w3.org/2000/svg" xmlns="http://www.w3.org/2000/svg" xmlns:sodipodi="http://sodipodi.sourceforge.net/DTD/sodipodi-0.dtd" xmlns:inkscape="http://www.inkscape.org/namespaces/inkscape" width="861.1" height="324.8" viewBox="0 0 861.1 324.8" id="svg2" version="1.1" inkscape:version="0.9" sodipodi:docname="logo1.svg" inkscape:export-filename="/home/szymon/chlonnik/utilsy/logo_prz/logo1.png" inkscape:export-xdpi="700.3" inkscape:export-ydpi="700.3">
  <defs id="defs4">
    <marker inkscape:isstock="true" id="marker5001" refX="0" refY="0" orient="auto" inkscape:stockid="TriangleOutM" overflow="visible">
      <path transform="scale(0.4,0.4)" d="m5.8 0-8.6 5 0-10 8.7 5z" id="path5003" inkscape:connector-curvature="0" style="fill-rule:evenodd;fill:#afdde9;stroke-width:1;stroke:#afdde9"/>
    </marker>
    <marker inkscape:stockid="TriangleOutM" orient="auto" refY="0" refX="0" id="TriangleOutM" inkscape:isstock="true" inkscape:collect="always" overflow="visible">
      <path id="path4426" d="m5.8 0-8.6 5 0-10 8.7 5z" transform="scale(0.4,0.4)" inkscape:connector-curvature="0" style="fill-rule:evenodd;fill:#afdde9;stroke-width:1;stroke:#afdde9"/>
    </marker>
    <marker inkscape:stockid="TriangleOutM" orient="auto" refY="0" refX="0" id="TriangleOutM-9" inkscape:isstock="true" inkscape:collect="always" overflow="visible">
      <path inkscape:connector-curvature="0" id="path4426-0" d="m5.8 0-8.6 5 0-10 8.7 5z" transform="scale(0.4,0.4)" style="fill-rule:evenodd;fill:#afdde9;stroke-width:1;stroke:#afdde9"/>
    </marker>
    <marker inkscape:stockid="TriangleOutM" orient="auto" refY="0" refX="0" id="TriangleOutM-9-6" inkscape:isstock="true" inkscape:collect="always" overflow="visible">
      <path inkscape:connector-curvature="0" id="path4426-0-5" d="m5.8 0-8.6 5 0-10 8.7 5z" transform="scale(0.4,0.4)" style="fill-rule:evenodd;fill:#afdde9;stroke-width:1;stroke:#afdde9"/>
    </marker>
  </defs>
  <sodipodi:namedview id="base" pagecolor="#ffffff" bordercolor="#666666" borderopacity="1" inkscape:pageopacity="0" inkscape:pageshadow="2" inkscape:zoom="5.1" inkscape:cx="158.5" inkscape:cy="109" inkscape:document-units="px" inkscape:current-layer="text3336" showgrid="false" inkscape:window-width="1920" inkscape:window-height="1016" inkscape:window-x="0" inkscape:window-y="27" inkscape:window-maximized="1" fit-margin-top="0" fit-margin-left="0" fit-margin-right="0" fit-margin-bottom="0" units="px"/>
  <metadata id="metadata7">
    <rdf:RDF>
      <cc:Work rdf:about="">
        <dc:format>
          image/svg+xml
        </dc:format>
        <dc:type rdf:resource="http://purl.org/dc/dcmitype/StillImage"/>
      </cc:Work>
    </rdf:RDF>
  </metadata>
  <g inkscape:label="Layer 1" inkscape:groupmode="layer" id="layer1" transform="translate(209.16512,33.437919)">
    <g id="text3336" style="fill:#000;font-family:sans-serif;font-size:40;letter-spacing:0;line-height:125;word-spacing:0">
      <rect id="rect3414" width="161.2" height="71.7" x="145.8" y="157.9" transform="matrix(0.98063273,0.1958557,-0.41401349,0.91027075,0,0)" inkscape:transform-center-y="1.6" inkscape:transform-center-x="-0.9" fill="#5fbcd3"/>
      <rect id="rect3416" width="156.5" height="98" x="104.7" y="33.9" transform="matrix(0.97792843,-0.20894014,0.33259177,0.94307089,0,0)" fill="#5fbcd3"/>
      <path d="M-164 255.3C77.3 153.7 310.4 204.8 398.3 239" id="path4260" inkscape:connector-curvature="0" sodipodi:nodetypes="cc" style="fill:none;marker-end:url(#TriangleOutM);stroke-miterlimit:4;stroke-width:4.4;stroke:#afdde9"/>
      <rect id="rect3412" width="109.2" height="151.2" x="-8" y="16.1" transform="matrix(0.36804366,0.92980851,-0.93523186,0.35403583,0,0)" fill="#5fbcd3"/>
      <rect id="rect3418" width="142" height="69.2" x="360" y="81.3" transform="matrix(0.98583858,0.16769705,-0.31436898,0.94930087,0,0)" fill="#5fbcd3"/>
      <rect id="rect3420" width="107.3" height="105.9" x="456" y="4.9" transform="matrix(0.98258091,0.18583528,0.20336128,-0.97910377,0,0)" fill="#5fbcd3"/>
      <path d="m118.7 195.6c163-12.1 280.5-58.9 520.7 6.8" id="path4260-0" inkscape:connector-curvature="0" sodipodi:nodetypes="cc" style="fill:none;font-family:sans-serif;font-size:40;letter-spacing:0;line-height:125;marker-end:url(#marker5001);stroke-miterlimit:4;stroke-width:4.4;stroke:#afdde9;word-spacing:0"/>
      <path d="M-125.3 131.1C84.9 108.4 334.8 47.2 454.4-27" id="path4260-9" inkscape:connector-curvature="0" sodipodi:nodetypes="cc" style="fill:none;font-family:sans-serif;font-size:40;letter-spacing:0;line-height:125;marker-end:url(#TriangleOutM-9);stroke-miterlimit:4;stroke-width:4.4;stroke:#afdde9;word-spacing:0"/>
      <path d="m11.4 105 67.3 0 12.7 0q2 0 3.9 0.2 2 0 3.1 0.9 1.3 0.9 2.2 3.3l0 3.3q0.4 1.1 0.2 2.6 0 1.3 0 2.4 0 2.9 0 5.7 0 2.9-0.9 4.8-0.9 1.8-2 3.1-1.1 1.1-2.2 2.4-1.3 1.8-2.9 3.5-1.5 1.5-2.9 3.3-0.4 0.4-0.9 0.9-0.4 0.2-0.9 0.7-1.1 1.5-2.6 2.9-1.3 1.3-2.4 2.9-3.5 4.6-7.5 8.6-3.9 3.9-7.5 8.6l-1.8 1.8q-1.1 1.5-2.6 2.9-1.3 1.3-2.4 2.9-1.1 1.5-2.6 2.9-1.3 1.3-2.4 2.6-1.1 1.3-2.2 2.4-0.9 1.1-2 2.4-0.9 1.1-1.8 2.2-0.9 0.9-1.8 2-0.9 0.9-1.5 1.8-0.7 0.9-1.1 2-0.2 0.4-0.4 1.1 0 0.7 0.4 1.1 0.4 1.3 1.5 1.5 1.1 0 2.4 0.4 2.2 0.4 4.8 0.4 2.9-0.2 5.3-0.2l32.2 0q3.9 0 7.5 0.2 3.5 0.2 4.6 3.3 0.4 1.1 0.4 2.4 0 1.3 0 2.9 0 3.3 0 7.5 0 4.2-2 5.7-1.3 1.1-3.3 1.1-2 0-4.4 0l-13.6 0-55.9 0-14.9 0q-2.4 0-4.6 0-2 0-3.5-1.1-1.3-1.1-1.5-3.5-0.2-2.4-0.2-4.8 0-3.1-0.2-6.6 0-3.7 0.9-6.1 0.4-1.3 1.1-2.4 0.7-1.3 1.5-2.4 1.8-2 3.5-3.7 1.8-2 3.5-4.2 1.1-1.1 1.8-1.5 3.1-4.2 6.6-7.7 3.5-3.5 6.6-7.5 0.9-1.1 1.8-2 0.9-0.9 1.5-2 1.1-1.5 2.4-2.6 1.5-1.3 2.6-3.1 0.4-0.4 0.9-0.7 0.4-0.4 0.9-0.9 1.1-1.8 2.4-3.1 1.5-1.3 2.6-2.9 0.4-0.7 1.1-1.3 0.9-0.7 1.5-1.3 1.8-2.4 3.7-4.4 2-2 3.7-4.2 1.1-1.5 2.4-2.9 1.5-1.3 2-3.3 0.4-1.3-0.4-2-0.7-0.7-1.3-1.1-2.4-1.1-5.9-0.9-3.3 0-6.4 0l-23.7 0q-2.6 0-5.7 0.2-2.9 0-4.6-1.1-2-1.1-2.2-4.2-0.2-3.1-0.2-6.1 0-1.1-0.2-2.4 0-1.3 0.2-2.4l0-1.8q0.2-0.7 0.2-1.5 0.2-0.9 0.7-1.3 1.3-1.8 2.9-2 0.4-0.2 1.1 0 0.7 0 1.1-0.4z" id="path3345" inkscape:connector-curvature="0" style="-inkscape-font-specification:'Alte Haas Grotesk Bold';fill:#2c5aa0;font-family:'Alte Haas Grotesk';font-weight:bold"/>
      <path d="m307 43q13.2-0.4 21.9 3.7 8.8 4.2 13.8 12.3 1.5 2.4 2.4 5.3 0.9 2.6 1.8 5.5 0.4 1.8 0.4 3.3 0.2 1.5 0.7 3.1 0 1.3 0.2 1.8 0.4 3.1 0.4 6.4 0 3.3 0 6.4l0 19.5 0 35.5q0 4.2-0.2 8.1 0 3.7-3.1 4.8-1.3 0.4-3.1 0.4-1.8 0-3.5 0l-11.8 0q-2.6 0-4.8-0.2-2-0.4-3.1-2-0.9-1.3-1.1-3.3 0-2.2 0-4.6l0-15.4 0-32.7q0-8.1-0.7-14.9-0.7-7-3.9-11.8-3.1-4.4-9-6.1-1.1-0.4-2.4-0.4-1.1 0-2.4-0.4-1.1-0.2-2.9 0-1.5 0-2.4 0.2-0.9 0.2-1.5 0.2-0.7 0-1.3 0.2-5 1.3-8.1 3.5-7 5-8.3 14.7-1.3 9.6-1.3 21.7l0 27.4 0 13.4q0 2 0 3.9 0 2-0.7 3.3-1.1 2.4-3.5 2.9-2.4 0.4-5.9 0.4l-11 0q-2.4 0-4.8-0.2-2.4-0.2-3.5-1.5-1.5-2-1.5-5.7 0.2-3.7 0.2-7l0-29.8 0-48.2 0-11.2q0-2.4 0-4.4 0.2-2 1.3-3.3 0.4-0.7 1.3-0.9 1.1-0.4 2.2-0.7l1.1 0q1.1-0.2 2.2-0.2 1.3 0 2.4 0l9.2 0q1.8 0 3.3 0.2 1.8 0 3.1 0.4 1.5 0.7 2 2 0.7 1.3 1.1 3.1 0.2 0.9 0 1.5 0 0.7 0.4 1.3 0.4 1.1 0.7 1.3 0.4 0.2 1.1 0.7 2.4 0.2 3.9-1.5 1.5-2 3.3-3.1 5.9-4.4 13.2-7 2-0.7 3.9-0.9 2.2-0.2 4.6-0.7 0.7-0.2 2 0 1.3 0 1.8-0.2z" id="path3349" inkscape:connector-curvature="0" style="-inkscape-font-specification:'Alte Haas Grotesk Bold';fill:#2c5aa0;font-family:'Alte Haas Grotesk';font-weight:bold"/>
      <path d="m404 0.7q1.5 1.8 1.5 5.3 0 3.5 0 6.8 0 2.9 0 5.9 0 3.1-1.5 4.2-1.3 1.1-3.5 1.3-2 0.2-4.4 0.2l-12.3 0q-2.4 0-4.4-0.2-1.8-0.2-3.1-1.3-0.9-0.7-1.3-2.4-0.2-2-0.4-4.2 0-2.4 0-4.8 0.2-2.4 0.2-4.2 0-1.8 0-3.1 0.2-1.5 0.9-2.6 0.4-0.9 1.1-1.3 0.9-0.4 1.8-0.9 0.4 0 1.1 0 0.7-0.2 1.1-0.2l16 0q2.2 0 4.2 0.2 2 0.2 3.1 1.3zM405.5 143.5q0 4.4-0.2 7.5-0.2 3.1-3.9 4.2-1.3 0.4-2.9 0.4-1.5-0.2-3.3-0.2l-12.3 0q-2 0-3.9-0.2-1.8-0.2-2.6-1.3-1.3-1.5-1.5-3.7 0-2.4 0-5l0-92.5q0-2.2 0-4.4 0-2.2 0.9-3.5 1.3-1.5 3.7-2 0.4-0.2 1.1 0 0.9 0 1.3-0.2l11 0q1.3 0 2.9 0 1.8-0.2 2.9 0l1.8 0q1.3 0.4 2.4 0.7 1.1 0.2 1.8 1.3 0.9 1.1 0.9 3.1 0.2 2 0.2 4.2l0 91.9z" id="path3351" inkscape:connector-curvature="0" style="-inkscape-font-specification:'Alte Haas Grotesk Bold';fill:#2c5aa0;font-family:'Alte Haas Grotesk';font-weight:bold"/>
      <path d="m482.6 41.4q17.8-0.4 29.6 5.3 12.1 5.7 19.1 16.2 3.5 5.3 5.3 12.1 0.4 1.1 0.7 2.9 0.4 1.8 0 3.1-0.9 2.4-3.1 2.9-2.2 0.2-5.3 0.2l-11.4 0q-2 0-4.2 0-2 0-3.3-0.9-1.8-0.9-2.4-2.6-0.7-2-1.8-3.9-1.3-2.4-2.9-4.4-1.5-2-3.5-3.5-3.1-2-6.8-3.1-1.3-0.4-2.6-0.4-1.3 0-2.4-0.4l-2.2 0q-4.4 0-7 0.9-6.4 2-10.3 6.1-3.9 3.9-6.4 9.6-1.1 2.4-1.8 5.3-0.4 2.6-1.1 5.7-0.2 0.9-0.2 1.8 0 0.9-0.2 1.8-0.4 2.2-0.4 6.1 0.2 3.9 0.7 6.1 0 1.8 0.2 2.4 0.4 1.5 0.4 3.1 0.2 1.5 0.7 3.1 1.8 5 4.2 9.2 2.4 4.2 6.1 7 0.9 0.7 2.6 1.5 2.4 1.5 4.8 2 2.6 0.4 6.4 0.9 0.4 0 1.3 0 0.9 0 1.3-0.2l2 0q1.5-0.4 2.9-0.7 1.5-0.4 2.9-0.9 6.6-2.9 10.1-8.3 0.9-1.1 1.5-2.4 0.7-1.5 1.1-2.6 0.9-2.4 1.5-4.2 0.7-2 3.1-3.1 2-0.9 6.4-0.7 4.4 0 7.2 0 1.5 0 3.1 0 1.8-0.2 2.9 0.2l1.8 0q0.9 0.2 1.8 0.4 0.9 0 1.3 0.4 1.1 0.9 1.3 2.6 0.4 1.5 0 3.3-2 7.2-4.8 12.9-9 16.9-28.7 23.5-2.2 0.7-4.6 0.9-2.4 0.4-4.8 1.1-1.3 0.2-2.6 0.2-1.3 0-2.6 0.2l-2.4 0q-1.1 0.4-3.3 0.2-2.2 0-3.3-0.2-1.8-0.4-3.3-0.4-1.3 0.2-2.9-0.2-1.1-0.2-2.2-0.4-1.1 0-2.2-0.2-2.4-0.7-4.6-1.3-2.2-0.7-4.2-1.5-10.3-4.4-17.3-11.2-7-7-11.4-17.3-1.1-2-1.8-4.2-0.7-2.4-1.3-4.8-0.2-0.9-0.2-1.5 0-0.9-0.4-2-0.4-1.5-0.4-3.1 0-1.8-0.4-3.3l0-3.7q-0.4-1.1-0.4-2.4 0-1.5 0.4-2.6 0.2-1.1 0-2-0.2-0.9 0-1.8 0.4-1.5 0.2-2.9 0-1.3 0.4-2.6 1.1-3.9 1.8-7.5 0.7-3.7 2-7.2 4.8-11.2 12.1-18.6 7.5-7.5 18.9-12.1 3.1-1.3 6.4-1.8 3.3-0.7 6.8-1.5 1.8-0.2 3.3-0.2 1.5 0 3.3-0.2z" id="path3353" inkscape:connector-curvature="0" style="-inkscape-font-specification:'Alte Haas Grotesk Bold';fill:#2c5aa0;font-family:'Alte Haas Grotesk';font-weight:bold"/>
      <path d="m226.5 125.9q0.4 1.8 0 3.9-0.4 2.2-1.5 2.9-1.1 0.9-3.3 1.3-2 0.2-4.6 0.4-2.4 0-5 0-2.4-0.2-4.4-0.2l-53.5 0q-1.5 0-3.1 0-1.3 0-2.4 0.4-1.8 0.9-2.2 1.8-0.4 0.4-0.9 1.8-0.4 1.1-0.2 2.2 0.4 1.3 0.4 2.6 0.2 1.1 0.7 2.4 1.8 5.3 4.2 8.8 2.6 3.3 7 5.9 1.8 1.1 3.5 1.5 2 0.2 3.9 0.9 1.8 0.4 4.8 0.7 3.1 0.2 5.3-0.2l2 0q2.2-0.4 3.9-0.9 2-0.7 3.7-1.3 2.2-1.1 4.8-2.9 2.9-1.8 4.2-3.5 1.1-1.5 2.2-2.9 1.3-1.5 3.1-2.2 2.2-1.1 5.5-0.9 3.5 0 6.4 0 1.3 0 2.6 0 1.5-0.2 2.6 0.2l2.2 0q2.2 0.4 3.1 1.1 0.9 0.4 0.9 2 0.2 1.5-0.2 2.6-1.1 3.1-2.4 5.5-1.3 2.4-3.1 4.8-4.8 7.2-11 11.6-6.1 4.4-15.4 7.5-2.4 0.9-4.8 1.1-2.4 0.2-5 0.9-0.9 0.2-2 0-0.9 0-1.8 0.2l-2.4 0q-1.1 0.4-2.6 0.2-1.3 0-2.4-0.2-1.8-0.2-3.1 0-1.3 0.2-2.9-0.2-1.1-0.4-2.4-0.4-1.3 0-2.4-0.4-2.4-0.4-4.8-1.1-2.4-0.4-4.4-1.5-2.4-0.9-4.6-1.5-2-0.9-3.7-2-7-4.4-12.5-10.1-5.5-5.9-9-13.6-1.1-2.4-1.8-4.8-0.7-2.6-1.8-5.3-0.2-0.9-0.2-1.5 0-0.9-0.2-1.8-0.9-2.6-1.1-5.7-0.2-3.1-0.4-6.1 0-1.1-0.2-2.4 0-1.3 0.2-2.4l0-2.6 0.7-5.3q0.9-3.7 1.5-7.2 0.7-3.5 2-6.6 9.4-22.8 32-32.2 3.1-1.3 6.1-1.8 3.3-0.7 6.8-1.5 1.8-0.2 3.3-0.2 1.5 0 3.3-0.2 11.2-0.2 19.1 2.6 8.1 2.6 14.5 7 2 1.3 3.9 3.1 2 1.5 3.5 3.3 0.7 1.1 1.8 1.8 1.8 2.4 3.3 5 1.5 2.4 3.3 5 1.1 2 1.8 4.2 0.9 2 1.8 4.4 1.1 2.9 1.8 5.9 0.7 3.1 1.5 6.1 0.4 1.8 0.2 3.9 0 2 0.4 3.7l0 2.4zm-32.9-12.9q1.5-2.2 0.2-5.3-1.1-3.3-1.8-4.8-3.1-5.9-8.1-9-5-3.3-14-3.5-0.7 0.4-1.5 0.2-0.9-0.2-1.5 0-1.1 0.4-2.4 0.7-1.3 0-2.4 0.4-9.6 3.1-14.3 12.1-0.4 0.9-1.1 2.4-0.4 1.3-0.7 2.9-0.2 1.3 0 2.6 0.4 1.3 1.5 2.2 1.8 1.1 4.8 1.1 3.1 0 5.9 0l24.3 0q3.1 0 6.4 0 3.5-0.2 4.6-2z" id="path3347" inkscape:connector-curvature="0" style="-inkscape-font-specification:'Alte Haas Grotesk Bold';fill:#2c5aa0;font-family:'Alte Haas Grotesk';font-weight:bold"/>
      <path d="m646.6 176.3q0.2 2.4 0 4.8 0 2.4-2.5 3.1-1.4 0.5-3.1 0.4-1.7-0.2-3.5-0.3l-11.8-1q-2-0.2-3.9-0.3-1.7-0.4-2.7-1.3-1.5-1-2.2-2.6-0.5-1.8-1.7-3-0.4-0.5-1-0.8-0.6-0.5-1.7-0.4-1.1 0.3-2.3 0.9-0.9 0.6-2.1 0.9-1.2 0.8-2.5 1.3-1.4 0.5-2.7 1.1-3 1.1-6.1 1.7-3.1 0.4-6.5 1-1.6 0.3-3.1 0.2-1.3 0.1-2.9 0.2-0.7-0.1-1.3-0.1-0.7 0.2-1.3 0.1l-2.4-0.2q-2.2 0.2-4.4-0.4l-2-0.2q-1.5-0.6-3-0.7-1.3 0.1-2.6-0.4-2.1-0.6-4.1-1.2-1.9-0.4-3.6-1.4-6.1-3-10.4-7.1-4-4.3-6.1-10.9-0.5-1.6-1-3.4-0.3-1.8-0.5-3.8-0.3-1.1-0.2-2.2 0.3-1.1 0.2-2.2-0.2-0.7-0.2-2.7 0.2-2.2 0.5-3 0.6-2.1 0.8-3.7 0.9-2.3 1.7-4.7 0.9-2.6 2.1-4.4 4.3-6 9.4-8.9 5.1-2.9 12.7-4.6 2.9-0.8 6-1 3.1-0.2 6.2-0.6 1.8-0.3 3.8-0.1 2 0 4-0.3 1.6-0.3 3.1 0 1.5 0.1 3.3-0.2 1.6-0.3 3.1-0.2 1.5 0.1 3.3-0.2 4.7-0.7 8.5-1 4-0.5 7.3-3.3 2.1-1.8 3-4.1 0.3-0.6 0.1-1.1 0-0.4 0.3-0.9 0.3-0.4 0.3-1.3 0.1-0.9 0.1-1.3-0.1-0.9-0.3-1.8 0.1-0.9-0.1-1.5-1.6-6.7-8.4-9.8-1.9-0.8-4.7-1.3-2.6-0.7-5.4-0.7-2.8-0.2-5.5 0-2.7 0.2-4.7 0.7-1.3 0.3-2.7 1.1-1.1 0.6-2.3 1.3-1.2 0.8-2.6 2.2-1.2 1.4-1.8 2.7-1.3 2.1-2.3 4-0.8 1.9-3.3 2.4-1.8 0.3-3.8 0.1-2-0.2-3.9-0.3l-8.3-0.7q-1.1-0.1-2.2 0-1.1-0.1-1.9-0.4l-2-0.2q-0.4-0.3-1.1-0.3-0.7-0.1-1.1-0.5-1.7-0.6-2.2-3.1-0.1-1.1 0.2-2.2 0.3-1.1 0.6-1.9 0.9-2.3 1.7-4.3 1.1-2.1 2.3-3.8 0.8-1 1.5-2.1 0.8-1 1.5-2.1 2-2.3 4.8-4.2 0.5-0.2 1.4-1 1.2-0.8 2.1-1.4 0.9-0.6 2.1-1.1 3.9-2.1 8.2-3 4.3-1.2 8.8-2.1 2.7-0.4 5.5-0.4 2.9 0 5.8-0.4 0.9-0.1 2.6 0.2 1.9 0.4 2.4 0 9 0.6 17 2.1 8.2 1.6 14.6 4.6 6.6 3 11 7.6 4.5 4.4 6.5 10.9 1.2 3.8 1 8.7-0.2 4.8-0.6 9.8l-4.3 48.7q-0.4 4.2-0.7 8.5-0.4 4.2 0.2 7.7 0.2 0.7 0.1 1.5-0.1 0.7 0.1 1.3zm-29.2-36.5q0.3-1.1 0.4-2.4 0.1-1.5 0-2.6-0.3-1.3-0.2-2.4 0.1-1.1-0.7-1.8-1-1-3.2-1.2-0.9 0.1-1.6 0.3-0.7-0.1-1.5 0.1-1.6 0.3-3.3 0.4-1.8 0.1-3.6 0.3-0.7 0.2-2 0-2.9 0.4-5.8 0.4-2.9 0-5.6 0.6-1.8 0.3-3.4 0.6-1.5 0.1-3.1 0.6-4.8 1.6-8.4 5.2-3.4 3.7-3.1 10.7 0.1 3.8 1.9 6.3 1.3 2.5 4.2 4.3 2.9 1.6 6.4 2.5 3.7 1 7.6 1.1 4.2-0.1 7.8-0.9 5.8-1.3 9.4-4.7 3.6-3.6 5.9-9.2 0.6-1.5 0.7-3 0.4-1.7 1-3.4l0.2-2z" id="path3355" inkscape:connector-curvature="0" style="-inkscape-font-specification:'Alte Haas Grotesk Bold';fill:#2c5aa0;font-family:'Alte Haas Grotesk';font-weight:bold"/>
      <path d="m-94 193.5q0.2 1.3 0.2 3.9 0 2.6-0.4 3.7l0 2.9q-0.7 2.4-0.9 4.6 0 2.2-0.7 4.4-0.4 2-0.9 4.2-0.4 2-1.3 3.9-1.5 3.7-3.1 7-1.5 3.1-3.5 6.1-1.3 2-2.9 3.7-1.3 1.5-3.1 3.3l-1.5 1.5q-1.1 1.1-2.4 2-1.1 0.9-2.2 1.8-1.8 1.3-3.9 2.4-2 0.9-4.2 2-2.2 1.1-4.6 1.5-2.2 0.4-4.6 0.9-1.3 0.4-2.9 0.4-1.3 0-2.9 0.4l-2 0q-1.8 0.4-3.3 0l-2.2 0q-1.3-0.4-2.9-0.4-1.3 0.2-2.6-0.2-3.5-1.1-6.8-2-3.1-0.9-5.7-2.6-1.5-0.9-2.9-1.8-1.3-1.1-2.9-2.2-0.9-0.7-2.6-2-1.8-1.3-3.1-0.2-1.1 0.7-1.1 1.8 0 0.9-0.4 2.2-0.4 2.2-0.4 5 0.2 2.9 0.2 5.3l0 22.4q0 2.9-0.2 5.5 0 2.9-1.1 4.6-0.7 0.9-2.4 1.3-1.8 0.4-3.9 0.4-2.2 0.2-4.4 0-2.2 0-3.7 0l-5.9 0q-0.7 0-1.5 0-0.9 0-1.5-0.2l-1.8 0q-3.7-1.1-3.9-4.4-0.2-3.1-0.2-7.5l0-128.7q0-2.4-0.2-5 0-2.9 1.1-4.4 0.9-1.5 2.4-2 1.1-0.4 2.6-0.4 1.8 0 3.3 0l10.5 0q2.2 0 4.2 0 2 0 3.3 1.1 1.5 1.1 1.5 2.9 0.2 1.5 1.1 3.3 0.2 0.7 0.4 1.1 0.4 0.2 0.9 0.7 2.4 0.2 3.9-1.3 1.5-1.5 3.1-2.6 2.9-2 5.9-3.5 3.1-1.8 6.8-2.9 1.8-0.7 3.7-0.9 2.2-0.2 4.2-0.7 0.9-0.2 1.8 0 1.1 0.2 1.8-0.2 12.5-0.4 21.1 3.5 8.8 3.7 14.9 9.9 1.1 1.1 2 2.2 0.9 0.9 1.8 2 1.5 2 2.6 3.9 1.3 2 2.4 3.9 0.4 0.4 0.4 1.1 0.2 0.7 0.7 1.5 1.3 2.2 2.4 5.3 0.4 1.3 0.9 2.9 0.4 1.3 0.9 2.9 0.9 2.6 1.1 5.5 0.4 2.9 1.1 5.9 0 1.1 0 2.4 0.2 1.3 0.4 2.6l0 2.4zm-30.9 5q0.2-1.1 0.2-2.9 0-2-0.2-3.1l0-2q-0.4-1.3-0.4-2.9 0-1.5-0.4-3.1-0.4-2.2-0.9-4.2-0.4-2.2-1.3-3.9-2.6-7-6.8-11.2-4.2-4.2-11.8-6.1-1.8-0.4-3.9-0.4-2 0-3.9 0-0.9 0.2-1.5 0.2-0.7 0-1.5 0.2-1.5 0.4-3.1 0.9-1.3 0.2-2.6 0.9-5.7 2.4-9 7.5-3.1 5-5 11.2-0.4 1.8-0.7 3.7-0.2 1.8-0.7 3.5-0.2 0.9-0.2 2.9-0.4 0.9-0.2 2.2 0.2 1.1 0 2.2-0.4 1.3 0 2.4l0 2.6q0 1.1 0 2 0 0.9 0.4 1.8 0 1.5 0.2 2.4 0.2 1.3 0.4 2.6 0.2 1.3 0.7 2.6 2 6.4 4.6 10.5 2.9 3.9 7.9 7 3.1 1.8 7.2 2.9 0.9 0.2 1.5 0.2 0.7-0.2 1.5 0 0.9 0.2 2.6 0.4 1.8 0 2.9-0.2 1.8-0.4 3.5-0.7 2-0.4 3.7-1.1 5.3-2.2 8.6-6.1 3.3-3.9 5.5-9.2 1.1-2.6 1.5-5.5 0.4-2.9 1.1-5.9 0-1.1 0-2.2 0.2-1.1 0.2-2.2z" id="path3341" inkscape:connector-curvature="0" style="-inkscape-font-specification:'Alte Haas Grotesk Bold';fill:#2c5aa0;font-family:'Alte Haas Grotesk';font-weight:bold"/>
      <path d="m508.3 36.9c0 0 61.6 5.2 120.5-46.4" id="path4260-9-6" inkscape:connector-curvature="0" sodipodi:nodetypes="cc" style="fill:none;font-family:sans-serif;font-size:40;letter-spacing:0;line-height:125;marker-end:url(#TriangleOutM-9-6);stroke-miterlimit:4;stroke-width:4.4;stroke:#afdde9;word-spacing:0"/>
      <path d="m-17.3 118.2q2.4 0 4.2 0.4 2 0.4 3.1 2 1.3 1.8 1.3 6.1 0 4.2 0 7.5 0 2.4 0 5.5 0.2 3.1-0.7 4.8-0.9 1.5-2.6 2-1.5 0.4-3.7 0.4-2 0-4.4-0.2-2.2-0.2-4.2 0.2-1.5 0.4-3.1 0.7-1.5 0-2.9 0.4-3.5 1.1-7 3.3-3.5 2-5.5 4.6-1.1 1.8-2.4 3.7-1.1 1.8-2.2 3.7-0.7 1.8-1.3 3.7-0.4 1.8-0.9 3.5-0.4 1.5-0.4 3.3 0 1.5-0.4 3.1-0.2 0.9-0.2 1.8 0.2 0.7 0 1.3l0 3.5q-0.4 1.5-0.2 3.5 0.2 1.8 0.2 3.5l0 14 0 18.6q0 2.9-0.2 5.3-0.2 2.4-1.3 3.9-0.4 0.7-1.5 1.1-0.9 0.2-2 0.4l-1.1 0q-1.1 0.2-2.4 0.2-1.3 0-2.4 0l-9.4 0q-1.3-0.2-2.9-0.2-1.3 0-2.9 0-1.1-0.4-2.2-0.7-1.1-0.4-1.5-1.5-0.9-1.1-1.1-3.1 0-2.2 0-4.4l0-14.9 0-61.8 0-16.2q0-2.2 0-4.2 0-2.2 0.9-3.5 1.1-1.8 3.3-2.2 2.2-0.4 5.3-0.4l11.2 0q2.6 0 4.6 0.4 2 0.2 3.1 2 0.7 1.1 0.7 3.1 0.2 2 0.4 3.9 0.2 1.8 0.7 3.3 0.7 1.5 2.2 1.5 0.4-0.4 0.9-0.4 0.4 0 0.9-0.4 1.3-1.1 2.2-2.4 1.1-1.5 2.6-2.6 0.9-0.7 1.5-1.3 0.7-0.9 1.5-1.5 2-1.3 3.9-2.6 2.2-1.3 4.4-2.4 2.2-0.9 4.4-1.5 2.4-0.7 4.8-1.3 0.7-0.2 2.4 0 2 0 2.4-0.4z" id="path3343" inkscape:connector-curvature="0" style="-inkscape-font-specification:'Alte Haas Grotesk Bold';fill:#2c5aa0;font-family:'Alte Haas Grotesk';font-weight:bold"/>
    </g>
    <flowRoot xml:space="preserve" id="flowRoot3357" style="fill:#000;font-family:sans-serif;font-size:40;letter-spacing:0;line-height:125;word-spacing:0">
      <flowRegion id="flowRegion3359">
        <rect id="rect3361" width="191.8" height="63.9" x="102.1" y="126.3"/>
      </flowRegion>
      <flowPara id="flowPara3363"/>
    </flowRoot>
    <g id="flowRoot3365" style="fill:#000;font-family:sans-serif;font-size:40;letter-spacing:0;line-height:125;word-spacing:0"/>
  </g>
</svg>
